<svg width="303" height="242" viewBox="0 0 303 242" fill="none" xmlns="http://www.w3.org/2000/svg">
<g clip-path="url(#clip0_53_2)">
<path d="M93 5.625C89.8887 5.625 87.375 8.13867 87.375 11.25V29.1621C87.375 30.1465 86.584 30.9375 85.5996 30.9375C84.9668 30.9375 84.3691 30.6035 84.0527 30.041L75.6152 15.293C62.5898 21.709 53.625 35.1211 53.625 50.625V61.875H143.625V50.2031C143.467 34.875 134.537 21.6562 121.635 15.293L113.197 30.041C112.881 30.6035 112.283 30.9375 111.65 30.9375C110.666 30.9375 109.875 30.1465 109.875 29.1621V11.25C109.875 8.13867 107.361 5.625 104.25 5.625H93ZM50.918 67.5C49.3008 67.5 48 68.8008 48 70.418C48 71.2441 48.3516 72.0352 49.0195 72.5098C52.834 75.3047 67.6523 84.375 98.625 84.375C129.598 84.375 144.416 75.3047 148.23 72.5098C148.898 72.0176 149.25 71.2441 149.25 70.418C149.25 68.8008 147.949 67.5 146.332 67.5H50.918Z" fill="#333333"/>
</g>
<path d="M99 90.5C102.792 90.5 106.547 89.7531 110.05 88.302C113.553 86.8509 116.736 84.724 119.418 82.0427C122.099 79.3614 124.226 76.1783 125.677 72.675C127.128 69.1717 127.875 65.4169 127.875 61.625C127.875 57.8331 127.128 54.0783 125.677 50.575C124.226 47.0717 122.099 43.8886 119.418 41.2073C116.736 38.526 113.553 36.3991 110.05 34.948C106.547 33.4969 102.792 32.75 99 32.75C91.3419 32.75 83.9974 35.7922 78.5823 41.2073C73.1672 46.6224 70.125 53.9669 70.125 61.625C70.125 69.2831 73.1672 76.6276 78.5823 82.0427C83.9974 87.4578 91.3419 90.5 99 90.5ZM24.75 176.3V181.25H173.25V176.3C173.25 157.82 173.25 148.58 169.653 141.518C166.489 135.309 161.441 130.261 155.232 127.097C148.17 123.5 138.93 123.5 120.45 123.5H77.55C59.07 123.5 49.83 123.5 42.768 127.097C36.5589 130.261 31.5108 135.309 28.347 141.518C24.75 148.58 24.75 157.82 24.75 176.3Z" fill="#333333" stroke="#333333" stroke-width="7.5" stroke-linecap="round" stroke-linejoin="round"/>
<g clip-path="url(#clip1_53_2)">
<path d="M198 41.625C194.889 41.625 192.375 44.1387 192.375 47.25V65.1621C192.375 66.1465 191.584 66.9375 190.6 66.9375C189.967 66.9375 189.369 66.6035 189.053 66.041L180.615 51.293C167.59 57.709 158.625 71.1211 158.625 86.625V97.875H248.625V86.2031C248.467 70.875 239.537 57.6562 226.635 51.293L218.197 66.041C217.881 66.6035 217.283 66.9375 216.65 66.9375C215.666 66.9375 214.875 66.1465 214.875 65.1621V47.25C214.875 44.1387 212.361 41.625 209.25 41.625H198ZM155.918 103.5C154.301 103.5 153 104.801 153 106.418C153 107.244 153.352 108.035 154.02 108.51C157.834 111.305 172.652 120.375 203.625 120.375C234.598 120.375 249.416 111.305 253.23 108.51C253.898 108.018 254.25 107.244 254.25 106.418C254.25 104.801 252.949 103.5 251.332 103.5H155.918Z" fill="#333333"/>
</g>
<path d="M204 126.5C207.792 126.5 211.547 125.753 215.05 124.302C218.553 122.851 221.736 120.724 224.418 118.043C227.099 115.361 229.226 112.178 230.677 108.675C232.128 105.172 232.875 101.417 232.875 97.625C232.875 93.8331 232.128 90.0783 230.677 86.575C229.226 83.0717 227.099 79.8886 224.418 77.2073C221.736 74.526 218.553 72.3991 215.05 70.948C211.547 69.4969 207.792 68.75 204 68.75C196.342 68.75 188.997 71.7922 183.582 77.2073C178.167 82.6224 175.125 89.9669 175.125 97.625C175.125 105.283 178.167 112.628 183.582 118.043C188.997 123.458 196.342 126.5 204 126.5ZM129.75 212.3V217.25H278.25V212.3C278.25 193.82 278.25 184.58 274.653 177.518C271.489 171.309 266.441 166.261 260.232 163.097C253.17 159.5 243.93 159.5 225.45 159.5H182.55C164.07 159.5 154.83 159.5 147.768 163.097C141.559 166.261 136.511 171.309 133.347 177.518C129.75 184.58 129.75 193.82 129.75 212.3Z" fill="#333333" stroke="#333333" stroke-width="7.5" stroke-linecap="round" stroke-linejoin="round"/>
<defs>
<clipPath id="clip0_53_2">
<rect width="101.25" height="90" fill="white" transform="translate(48)"/>
</clipPath>
<clipPath id="clip1_53_2">
<rect width="101.25" height="90" fill="white" transform="translate(153 36)"/>
</clipPath>
</defs>
</svg>
